<svg xmlns="http://www.w3.org/2000/svg" id="SvgjsSvg4040" width="4096" height="1351.8361061353485" version="1.1" xmlns:xlink="http://www.w3.org/1999/xlink" xmlns:svgjs="http://svgjs.com/svgjs"><defs id="SvgjsDefs4041"></defs><g id="SvgjsG4042" transform="translate(328, 327.99999999999994) scale(34.4)" opacity="1"><defs id="SvgjsDefs2126"><linearGradient id="SvgjsLinearGradientM9jlT5moT" gradientUnits="userSpaceOnUse" x1="10.000000000000012" y1="90" x2="90" y2="9.999999999999998"><stop id="SvgjsStop2132" stop-color="#0977f7" offset="0"></stop><stop id="SvgjsStop2133" stop-color="#043c7d" offset="1"></stop></linearGradient></defs><g id="SvgjsG2127" transform="scale(0.21645021645021648)" opacity="1"><g id="SvgjsG2128" class="text" transform="translate(364.82746904250456, 36.09) scale(1)" light-content="false" fill="#2a7adb"><path d="M-59.84 -34.61C-60.6 -35.43 -61.68 -35.84 -63.1 -35.84C-64.48 -35.84 -65.6 -35.43 -66.48 -34.61C-67.35 -33.78 -67.86 -32.66 -67.99 -31.25L-68.75 -21.76L-83.24 -21.76L-82.48 -31.3C-82.35 -32.68 -82.66 -33.78 -83.42 -34.61C-84.17 -35.43 -85.26 -35.84 -86.67 -35.84C-88.05 -35.84 -89.18 -35.43 -90.05 -34.61C-90.93 -33.78 -91.43 -32.66 -91.57 -31.25L-93.69 -4.29C-93.82 -2.88 -93.51 -1.76 -92.75 -0.93C-92 -0.11 -90.91 0.3 -89.5 0.3C-88.12 0.3 -86.99 -0.12 -86.12 -0.96C-85.24 -1.8 -84.74 -2.93 -84.6 -4.34L-83.79 -14.39L-69.31 -14.39L-70.11 -4.29C-70.25 -2.88 -69.93 -1.76 -69.15 -0.93C-68.38 -0.11 -67.3 0.3 -65.92 0.3C-64.54 0.3 -63.42 -0.12 -62.54 -0.96C-61.67 -1.8 -61.16 -2.93 -61.03 -4.34L-58.91 -31.3C-58.77 -32.68 -59.08 -33.78 -59.84 -34.61Z M-32.59 -1.59C-29.93 -0.19 -26.82 0.5 -23.25 0.5C-19.69 0.5 -16.54 -0.3 -13.81 -1.92C-11.09 -3.53 -8.98 -5.81 -7.48 -8.73C-5.98 -11.66 -5.23 -15.04 -5.23 -18.88C-5.23 -22.38 -5.95 -25.43 -7.38 -28.02C-8.81 -30.61 -10.85 -32.6 -13.51 -34C-16.17 -35.4 -19.28 -36.09 -22.85 -36.09C-26.45 -36.09 -29.61 -35.3 -32.34 -33.7C-35.07 -32.1 -37.17 -29.83 -38.65 -26.88C-40.13 -23.94 -40.87 -20.55 -40.87 -16.71C-40.87 -13.18 -40.16 -10.12 -38.73 -7.55C-37.3 -4.97 -35.25 -2.99 -32.59 -1.59ZM-16.89 -9.89C-18.47 -7.74 -20.63 -6.66 -23.35 -6.66C-26.01 -6.66 -28.06 -7.53 -29.49 -9.26C-30.92 -11 -31.63 -13.48 -31.63 -16.71C-31.63 -20.51 -30.84 -23.5 -29.26 -25.67C-27.68 -27.84 -25.51 -28.93 -22.75 -28.93C-20.16 -28.93 -18.14 -28.05 -16.69 -26.3C-15.24 -24.55 -14.52 -22.08 -14.52 -18.88C-14.52 -15.04 -15.31 -12.05 -16.89 -9.89Z M49.83 -34.55C49.07 -35.41 48.06 -35.84 46.78 -35.84C45.9 -35.84 45.08 -35.58 44.3 -35.06C43.53 -34.54 42.82 -33.77 42.18 -32.76L31.58 -15.7L23.86 -32.81C22.95 -34.83 21.57 -35.84 19.72 -35.84C18.44 -35.84 17.36 -35.42 16.49 -34.58C15.61 -33.74 15.11 -32.64 14.97 -31.3L12.8 -3.84C12.7 -2.56 13 -1.55 13.69 -0.81C14.38 -0.07 15.31 0.3 16.49 0.3C17.73 0.3 18.76 -0.08 19.57 -0.86C20.38 -1.63 20.81 -2.64 20.88 -3.89L22.04 -18.12L26.94 -8.03C27.44 -6.95 28 -6.18 28.6 -5.7C29.21 -5.23 29.95 -5 30.83 -5C31.7 -5 32.47 -5.23 33.15 -5.7C33.82 -6.18 34.49 -6.95 35.17 -8.03L41.68 -18.68L40.52 -3.84C40.38 -2.59 40.68 -1.59 41.4 -0.83C42.13 -0.08 43.08 0.3 44.25 0.3C45.5 0.3 46.5 -0.08 47.26 -0.83C48.01 -1.59 48.46 -2.61 48.6 -3.89L50.77 -31.2C50.9 -32.58 50.59 -33.7 49.83 -34.55Z M79.76 -28.42L92.48 -28.42C95.61 -28.42 97.17 -29.72 97.17 -32.31C97.17 -33.32 96.83 -34.12 96.14 -34.71C95.45 -35.3 94.43 -35.59 93.08 -35.59L75.57 -35.59C74.22 -35.59 73.14 -35.22 72.34 -34.48C71.53 -33.74 71.06 -32.68 70.92 -31.3L68.8 -4.29C68.67 -2.91 68.94 -1.85 69.63 -1.11C70.32 -0.37 71.36 0 72.74 0L90.21 0C93.34 0 94.9 -1.26 94.9 -3.79C94.9 -4.83 94.56 -5.65 93.87 -6.26C93.18 -6.87 92.16 -7.17 90.81 -7.17L78.04 -7.17L78.65 -14.54L90.36 -14.54C91.94 -14.54 93.11 -14.85 93.87 -15.47C94.62 -16.1 95 -17.06 95 -18.38C95 -19.42 94.66 -20.23 93.97 -20.8C93.28 -21.37 92.26 -21.66 90.91 -21.66L79.2 -21.66Z"></path></g><g id="SvgjsG2129" class="text" transform="translate(170.02733693312777, 36.29186541093205) scale(1)" light-content="false" fill="#053c7f"><path d="M-47.98 -35.31C-48.67 -34.89 -49.23 -34.26 -49.67 -33.42L-60.77 -11.56L-68.5 -33.47C-68.8 -34.31 -69.26 -34.93 -69.86 -35.34C-70.47 -35.74 -71.17 -35.94 -71.98 -35.94C-73.26 -35.94 -74.43 -35.51 -75.49 -34.63C-76.55 -33.76 -77.08 -32.71 -77.08 -31.5C-77.08 -31.03 -76.98 -30.54 -76.78 -30.04L-66.38 -2.42C-66.04 -1.51 -65.47 -0.82 -64.66 -0.35C-63.85 0.12 -62.95 0.35 -61.94 0.35C-60.89 0.35 -59.9 0.11 -58.96 -0.38C-58.02 -0.87 -57.31 -1.56 -56.84 -2.47L-42 -30.04C-41.63 -30.68 -41.44 -31.37 -41.44 -32.11C-41.44 -33.18 -41.88 -34.09 -42.75 -34.83C-43.63 -35.57 -44.64 -35.94 -45.78 -35.94C-46.56 -35.94 -47.29 -35.73 -47.98 -35.31Z M-24.94 -0.93C-24.19 -0.11 -23.09 0.3 -21.64 0.3C-20.19 0.3 -19.02 -0.12 -18.13 -0.96C-17.24 -1.8 -16.72 -2.93 -16.59 -4.34L-14.47 -31.3C-14.33 -32.68 -14.65 -33.78 -15.43 -34.61C-16.2 -35.43 -17.31 -35.84 -18.76 -35.84C-20.17 -35.84 -21.33 -35.43 -22.22 -34.61C-23.11 -33.78 -23.62 -32.66 -23.76 -31.25L-25.88 -4.29C-26.01 -2.88 -25.7 -1.76 -24.94 -0.93Z M32.72 -15.3C31.73 -16.81 30.32 -17.84 28.5 -18.38C32.58 -19.99 34.61 -22.73 34.61 -26.6C34.61 -29.26 33.58 -31.42 31.51 -33.09C29.44 -34.76 26.45 -35.59 22.55 -35.59L10.18 -35.59C8.8 -35.59 7.71 -35.22 6.92 -34.48C6.13 -33.74 5.67 -32.68 5.53 -31.3L3.36 -4.24C3.26 -2.86 3.55 -1.81 4.22 -1.09C4.89 -0.36 5.92 0 7.3 0L20.88 0C24.95 0 28.19 -0.88 30.6 -2.63C33 -4.38 34.21 -6.87 34.21 -10.1C34.21 -12.05 33.71 -13.78 32.72 -15.3ZM24.44 -22.39C23.62 -21.87 22.23 -21.61 20.28 -21.61L13.81 -21.61L14.37 -28.57L20.88 -28.57C22.56 -28.57 23.78 -28.29 24.54 -27.71C25.3 -27.14 25.68 -26.28 25.68 -25.14C25.68 -23.83 25.26 -22.91 24.44 -22.39ZM24.29 -7.88C23.4 -7.3 21.99 -7.02 20.07 -7.02L12.65 -7.02L13.26 -14.59L20.68 -14.59C22.4 -14.59 23.65 -14.28 24.44 -13.66C25.23 -13.03 25.63 -12.1 25.63 -10.85C25.63 -9.44 25.18 -8.45 24.29 -7.88Z M63 -28.42L75.72 -28.42C78.85 -28.42 80.41 -29.72 80.41 -32.31C80.41 -33.32 80.07 -34.12 79.38 -34.71C78.69 -35.3 77.67 -35.59 76.32 -35.59L58.81 -35.59C57.46 -35.59 56.38 -35.22 55.58 -34.48C54.77 -33.74 54.3 -32.68 54.16 -31.3L52.04 -4.29C51.91 -2.91 52.18 -1.85 52.87 -1.11C53.56 -0.37 54.6 0 55.98 0L73.45 0C76.58 0 78.14 -1.26 78.14 -3.79C78.14 -4.83 77.8 -5.65 77.11 -6.26C76.42 -6.87 75.4 -7.17 74.05 -7.17L61.28 -7.17L61.89 -14.54L73.6 -14.54C75.18 -14.54 76.35 -14.85 77.11 -15.47C77.86 -16.1 78.24 -17.06 78.24 -18.38C78.24 -19.42 77.9 -20.23 77.21 -20.8C76.52 -21.37 75.5 -21.66 74.15 -21.66L62.44 -21.66Z"></path></g><g id="SvgjsG2130" class="text" transform="translate(254.70733693312775, 64.85781281795678) scale(1)" light-content="false" fill="#000000"><path d="M-156.52 -11.96L-160.42 -11.96L-161.76 -11.96L-161.76 -10.92L-160.42 -10.69L-160.42 -1.27L-161.76 -1.04L-161.76 0L-156.01 0C-154.79 0 -153.83 -0.29 -153.12 -0.87C-152.41 -1.44 -152.05 -2.28 -152.05 -3.38C-152.05 -4.11 -152.26 -4.75 -152.67 -5.31C-153.09 -5.86 -153.66 -6.21 -154.37 -6.37C-153.82 -6.57 -153.38 -6.88 -153.04 -7.3C-152.7 -7.72 -152.53 -8.19 -152.53 -8.73C-152.53 -9.8 -152.89 -10.61 -153.59 -11.15C-154.29 -11.69 -155.27 -11.96 -156.52 -11.96ZM-158.8 -5.61L-155.76 -5.61C-155.06 -5.61 -154.53 -5.41 -154.19 -5.01C-153.85 -4.61 -153.68 -4.06 -153.68 -3.36C-153.68 -2.69 -153.88 -2.18 -154.29 -1.81C-154.7 -1.45 -155.27 -1.27 -156.01 -1.27L-158.8 -1.27ZM-158.8 -6.88L-158.8 -10.69L-156.52 -10.69C-155.75 -10.69 -155.17 -10.53 -154.76 -10.21C-154.36 -9.89 -154.15 -9.41 -154.15 -8.76C-154.15 -8.18 -154.33 -7.72 -154.69 -7.39C-155.05 -7.07 -155.52 -6.89 -156.1 -6.88Z M-150.56 -1.04L-150.56 0L-146.26 0L-146.26 -1.04L-147.6 -1.27L-147.6 -8.89L-150.56 -8.89L-150.56 -7.85L-149.22 -7.62L-149.22 -1.27ZM-147.6 -11.17L-147.6 -12.82L-149.22 -12.82L-149.22 -11.17Z M-138.67 -1.31L-138.57 0L-136.09 0L-136.09 -1.04L-137.11 -1.27L-137.11 -8.89L-138.73 -8.89L-139.92 -8.89L-139.92 -7.85L-138.73 -7.62L-138.73 -2.48C-138.92 -2.05 -139.21 -1.72 -139.58 -1.49C-139.96 -1.26 -140.43 -1.14 -141.01 -1.14C-141.6 -1.14 -142.03 -1.32 -142.31 -1.68C-142.59 -2.03 -142.73 -2.68 -142.73 -3.63L-142.73 -8.89L-144.35 -8.89L-145.37 -8.89L-145.37 -7.85L-144.35 -7.62L-144.35 -3.65C-144.35 -2.34 -144.08 -1.37 -143.54 -0.76C-142.99 -0.14 -142.24 0.17 -141.28 0.17C-140.7 0.17 -140.19 0.04 -139.75 -0.21C-139.31 -0.47 -138.95 -0.84 -138.67 -1.31Z M-134.81 -7.85L-133.47 -7.62L-133.47 -1.27L-134.81 -1.04L-134.81 0L-130.51 0L-130.51 -1.04L-131.85 -1.27L-131.85 -6.37C-131.69 -6.73 -131.47 -7.01 -131.18 -7.21C-130.89 -7.41 -130.53 -7.51 -130.1 -7.51L-129.18 -7.46L-128.97 -8.96C-129.04 -8.99 -129.14 -9.01 -129.28 -9.03C-129.41 -9.04 -129.54 -9.05 -129.67 -9.05C-130.14 -9.05 -130.57 -8.93 -130.94 -8.67C-131.31 -8.41 -131.62 -8.05 -131.87 -7.6L-132.03 -8.89L-134.81 -8.89Z M-128.01 -4.53L-128.01 -4.35C-128.01 -3.03 -127.65 -1.94 -126.94 -1.1C-126.23 -0.25 -125.26 0.17 -124.02 0.17C-122.8 0.17 -121.83 -0.25 -121.12 -1.09C-120.41 -1.94 -120.05 -3.02 -120.05 -4.35L-120.05 -4.53C-120.05 -5.85 -120.41 -6.93 -121.13 -7.78C-121.84 -8.63 -122.81 -9.05 -124.04 -9.05C-125.26 -9.05 -126.23 -8.63 -126.94 -7.78C-127.65 -6.93 -128.01 -5.84 -128.01 -4.53ZM-126.39 -4.35L-126.39 -4.53C-126.39 -5.46 -126.19 -6.23 -125.8 -6.85C-125.4 -7.47 -124.82 -7.78 -124.04 -7.78C-123.26 -7.78 -122.67 -7.47 -122.27 -6.85C-121.87 -6.23 -121.67 -5.46 -121.67 -4.53L-121.67 -4.35C-121.67 -3.4 -121.87 -2.63 -122.27 -2.01C-122.67 -1.4 -123.26 -1.09 -124.02 -1.09C-124.81 -1.09 -125.4 -1.4 -125.79 -2.01C-126.19 -2.63 -126.39 -3.4 -126.39 -4.35Z M-102.82 -11.96L-104.16 -11.96L-107.12 -11.96L-107.12 -10.92L-105.78 -10.69L-105.78 -2.75L-105.83 -2.74L-111.58 -11.96L-113.2 -11.96L-114.54 -11.96L-114.54 -10.92L-113.2 -10.69L-113.2 -1.27L-114.54 -1.04L-114.54 0L-110.24 0L-110.24 -1.04L-111.58 -1.27L-111.58 -9.22L-111.53 -9.24L-105.78 0L-104.16 0L-104.16 -10.69L-102.82 -10.92Z M-101.58 -1.04L-101.58 0L-97.28 0L-97.28 -1.04L-98.62 -1.27L-98.62 -8.89L-101.58 -8.89L-101.58 -7.85L-100.24 -7.62L-100.24 -1.27ZM-98.62 -11.17L-98.62 -12.82L-100.24 -12.82L-100.24 -11.17Z M-91.99 0.17C-91.25 0.17 -90.62 0.07 -90.1 -0.14C-89.58 -0.35 -89.16 -0.61 -88.84 -0.92L-89.47 -1.97C-89.77 -1.7 -90.13 -1.48 -90.55 -1.33C-90.96 -1.17 -91.44 -1.09 -91.99 -1.09C-92.74 -1.09 -93.32 -1.37 -93.74 -1.92C-94.15 -2.47 -94.37 -3.17 -94.39 -4.03L-94.36 -4.07L-88.59 -4.07L-88.59 -5.08C-88.59 -6.28 -88.9 -7.25 -89.52 -7.97C-90.13 -8.69 -91.04 -9.05 -92.23 -9.05C-93.26 -9.05 -94.15 -8.63 -94.91 -7.79C-95.66 -6.95 -96.04 -5.9 -96.04 -4.63L-96.04 -4.27C-96.04 -2.96 -95.67 -1.89 -94.94 -1.06C-94.21 -0.24 -93.23 0.17 -91.99 0.17ZM-92.23 -7.78C-91.57 -7.78 -91.06 -7.57 -90.72 -7.14C-90.38 -6.71 -90.21 -6.18 -90.21 -5.55L-90.21 -5.33L-94.31 -5.33L-94.33 -5.37C-94.24 -6.06 -94.01 -6.64 -93.62 -7.09C-93.24 -7.55 -92.78 -7.78 -92.23 -7.78Z M-87 -7.85L-85.66 -7.62L-85.66 -1.27L-87 -1.04L-87 0L-82.7 0L-82.7 -1.04L-84.04 -1.27L-84.04 -6.37C-83.88 -6.73 -83.66 -7.01 -83.37 -7.21C-83.08 -7.41 -82.72 -7.51 -82.29 -7.51L-81.37 -7.46L-81.16 -8.96C-81.23 -8.99 -81.33 -9.01 -81.47 -9.03C-81.6 -9.04 -81.73 -9.05 -81.86 -9.05C-82.33 -9.05 -82.76 -8.93 -83.13 -8.67C-83.5 -8.41 -83.81 -8.05 -84.06 -7.6L-84.21 -8.89L-87 -8.89Z M-73.68 -1.31L-73.57 0L-71.1 0L-71.1 -1.04L-72.12 -1.27L-72.12 -8.89L-73.74 -8.89L-74.93 -8.89L-74.93 -7.85L-73.74 -7.62L-73.74 -2.48C-73.93 -2.05 -74.21 -1.72 -74.59 -1.49C-74.96 -1.26 -75.44 -1.14 -76.01 -1.14C-76.61 -1.14 -77.04 -1.32 -77.32 -1.68C-77.6 -2.03 -77.74 -2.68 -77.74 -3.63L-77.74 -8.89L-79.36 -8.89L-80.38 -8.89L-80.38 -7.85L-79.36 -7.62L-79.36 -3.65C-79.36 -2.34 -79.09 -1.37 -78.55 -0.76C-78 -0.14 -77.25 0.17 -76.29 0.17C-75.71 0.17 -75.2 0.04 -74.76 -0.21C-74.32 -0.47 -73.96 -0.84 -73.68 -1.31Z M-65.83 -1.09C-66.68 -1.09 -67.29 -1.4 -67.65 -2C-68.01 -2.61 -68.19 -3.36 -68.19 -4.27L-68.19 -4.62C-68.19 -5.51 -68.01 -6.25 -67.65 -6.86C-67.28 -7.48 -66.68 -7.78 -65.83 -7.78C-65.45 -7.78 -65.11 -7.72 -64.81 -7.61C-64.51 -7.49 -64.26 -7.34 -64.07 -7.16L-63.71 -5.76L-62.42 -5.76L-62.5 -7.73C-62.87 -8.14 -63.34 -8.47 -63.91 -8.7C-64.47 -8.94 -65.11 -9.05 -65.83 -9.05C-67.11 -9.05 -68.1 -8.63 -68.78 -7.79C-69.47 -6.94 -69.81 -5.88 -69.81 -4.62L-69.81 -4.27C-69.81 -3 -69.47 -1.94 -68.79 -1.09C-68.11 -0.25 -67.12 0.17 -65.83 0.17C-64.88 0.17 -64.06 -0.12 -63.35 -0.72C-62.64 -1.31 -62.3 -1.99 -62.33 -2.76L-62.34 -2.81L-63.8 -2.81C-63.8 -2.33 -64 -1.92 -64.41 -1.59C-64.82 -1.26 -65.29 -1.09 -65.83 -1.09Z M-60.97 -1.04L-60.97 0L-56.67 0L-56.67 -1.04L-58.01 -1.27L-58.01 -6.56C-57.78 -6.93 -57.48 -7.21 -57.11 -7.42C-56.75 -7.63 -56.34 -7.74 -55.9 -7.74C-55.28 -7.74 -54.81 -7.56 -54.49 -7.21C-54.18 -6.86 -54.02 -6.32 -54.02 -5.59L-54.02 -1.27L-55.36 -1.04L-55.36 0L-51.06 0L-51.06 -1.04L-52.4 -1.27L-52.4 -5.57C-52.4 -6.75 -52.66 -7.63 -53.19 -8.2C-53.71 -8.77 -54.45 -9.05 -55.41 -9.05C-55.95 -9.05 -56.44 -8.94 -56.89 -8.7C-57.33 -8.47 -57.71 -8.13 -58.01 -7.71L-58.01 -12.82L-60.97 -12.82L-60.97 -11.77L-59.63 -11.54L-59.63 -1.27Z M-49.96 -4.53L-49.96 -4.35C-49.96 -3.03 -49.6 -1.94 -48.89 -1.1C-48.18 -0.25 -47.21 0.17 -45.98 0.17C-44.75 0.17 -43.79 -0.25 -43.07 -1.09C-42.36 -1.94 -42.01 -3.02 -42.01 -4.35L-42.01 -4.53C-42.01 -5.85 -42.36 -6.93 -43.08 -7.78C-43.79 -8.63 -44.76 -9.05 -45.99 -9.05C-47.21 -9.05 -48.18 -8.63 -48.89 -7.78C-49.6 -6.93 -49.96 -5.84 -49.96 -4.53ZM-48.34 -4.35L-48.34 -4.53C-48.34 -5.46 -48.14 -6.23 -47.75 -6.85C-47.36 -7.47 -46.77 -7.78 -45.99 -7.78C-45.21 -7.78 -44.62 -7.47 -44.22 -6.85C-43.83 -6.23 -43.63 -5.46 -43.63 -4.53L-43.63 -4.35C-43.63 -3.4 -43.83 -2.63 -44.22 -2.01C-44.62 -1.4 -45.21 -1.09 -45.98 -1.09C-46.76 -1.09 -47.35 -1.4 -47.75 -2.01C-48.14 -2.63 -48.34 -3.4 -48.34 -4.35Z M-40.85 -1.04L-40.85 0L-36.55 0L-36.55 -1.04L-37.89 -1.27L-37.89 -6.58C-37.72 -6.95 -37.48 -7.23 -37.16 -7.44C-36.84 -7.64 -36.44 -7.74 -35.94 -7.74C-35.36 -7.74 -34.91 -7.55 -34.6 -7.16C-34.29 -6.77 -34.14 -6.17 -34.14 -5.33L-34.14 -1.27L-35.47 -1.04L-35.47 0L-31.18 0L-31.18 -1.04L-32.52 -1.27L-32.52 -5.64C-32.46 -6.25 -32.26 -6.75 -31.92 -7.14C-31.58 -7.54 -31.13 -7.74 -30.56 -7.74C-29.97 -7.74 -29.52 -7.56 -29.22 -7.19C-28.92 -6.83 -28.77 -6.21 -28.77 -5.33L-28.77 -1.27L-30.11 -1.04L-30.11 0L-25.8 0L-25.8 -1.04L-27.14 -1.27L-27.14 -5.32C-27.14 -6.56 -27.41 -7.5 -27.93 -8.12C-28.46 -8.74 -29.18 -9.05 -30.08 -9.05C-30.7 -9.05 -31.23 -8.91 -31.69 -8.61C-32.16 -8.32 -32.52 -7.92 -32.8 -7.41C-33.02 -7.96 -33.34 -8.37 -33.76 -8.64C-34.19 -8.92 -34.69 -9.05 -35.29 -9.05C-35.88 -9.05 -36.4 -8.94 -36.85 -8.71C-37.3 -8.48 -37.66 -8.15 -37.95 -7.73L-38.05 -8.89L-40.85 -8.89L-40.85 -7.85L-39.51 -7.62L-39.51 -1.27Z M-24.7 -4.53L-24.7 -4.35C-24.7 -3.03 -24.35 -1.94 -23.63 -1.1C-22.92 -0.25 -21.95 0.17 -20.72 0.17C-19.5 0.17 -18.53 -0.25 -17.82 -1.09C-17.11 -1.94 -16.75 -3.02 -16.75 -4.35L-16.75 -4.53C-16.75 -5.85 -17.11 -6.93 -17.82 -7.78C-18.54 -8.63 -19.51 -9.05 -20.73 -9.05C-21.96 -9.05 -22.92 -8.63 -23.63 -7.78C-24.35 -6.93 -24.7 -5.84 -24.7 -4.53ZM-23.08 -4.35L-23.08 -4.53C-23.08 -5.46 -22.89 -6.23 -22.49 -6.85C-22.1 -7.47 -21.51 -7.78 -20.73 -7.78C-19.96 -7.78 -19.37 -7.47 -18.97 -6.85C-18.57 -6.23 -18.37 -5.46 -18.37 -4.53L-18.37 -4.35C-18.37 -3.4 -18.57 -2.63 -18.97 -2.01C-19.37 -1.4 -19.95 -1.09 -20.72 -1.09C-21.5 -1.09 -22.09 -1.4 -22.49 -2.01C-22.89 -2.63 -23.08 -3.4 -23.08 -4.35Z M-15.03 0ZM-8.47 -6.1L-8.55 -8.06C-8.91 -8.37 -9.35 -8.62 -9.89 -8.79C-10.43 -8.97 -11.03 -9.05 -11.7 -9.05C-12.69 -9.05 -13.49 -8.8 -14.11 -8.29C-14.72 -7.78 -15.03 -7.16 -15.03 -6.44C-15.03 -5.75 -14.76 -5.2 -14.21 -4.8C-13.66 -4.39 -12.85 -4.07 -11.77 -3.84C-11.01 -3.67 -10.5 -3.47 -10.23 -3.24C-9.96 -3.01 -9.82 -2.71 -9.82 -2.36C-9.82 -1.98 -9.99 -1.67 -10.31 -1.44C-10.64 -1.21 -11.09 -1.09 -11.66 -1.09C-12 -1.09 -12.32 -1.13 -12.65 -1.21C-12.97 -1.28 -13.22 -1.41 -13.41 -1.58L-13.71 -2.77L-14.93 -2.77L-14.92 -0.74C-14.5 -0.44 -14.02 -0.22 -13.48 -0.06C-12.94 0.09 -12.34 0.17 -11.66 0.17C-10.63 0.17 -9.8 -0.07 -9.16 -0.56C-8.52 -1.05 -8.2 -1.68 -8.2 -2.47C-8.2 -3.17 -8.48 -3.72 -9.03 -4.14C-9.57 -4.55 -10.41 -4.88 -11.53 -5.12C-12.29 -5.28 -12.79 -5.46 -13.04 -5.66C-13.28 -5.86 -13.41 -6.14 -13.41 -6.49C-13.41 -6.85 -13.27 -7.15 -12.99 -7.4C-12.71 -7.65 -12.28 -7.78 -11.7 -7.78C-11.33 -7.78 -10.99 -7.72 -10.69 -7.61C-10.39 -7.5 -10.14 -7.35 -9.95 -7.16L-9.68 -6.1ZM-11.13 -12.33L-12.64 -10.15L-11.43 -10.15L-9.22 -12.28L-9.24 -12.33Z M-2.7 -1.09C-3.55 -1.09 -4.16 -1.4 -4.52 -2C-4.88 -2.61 -5.07 -3.36 -5.07 -4.27L-5.07 -4.62C-5.07 -5.51 -4.88 -6.25 -4.52 -6.86C-4.15 -7.48 -3.55 -7.78 -2.7 -7.78C-2.32 -7.78 -1.98 -7.72 -1.68 -7.61C-1.38 -7.49 -1.13 -7.34 -0.94 -7.16L-0.59 -5.76L0.7 -5.76L0.63 -7.73C0.26 -8.14 -0.21 -8.47 -0.78 -8.7C-1.35 -8.94 -1.99 -9.05 -2.7 -9.05C-3.99 -9.05 -4.97 -8.63 -5.66 -7.79C-6.34 -6.94 -6.68 -5.88 -6.68 -4.62L-6.68 -4.27C-6.68 -3 -6.34 -1.94 -5.66 -1.09C-4.98 -0.25 -3.99 0.17 -2.7 0.17C-1.76 0.17 -0.93 -0.12 -0.22 -0.72C0.49 -1.31 0.83 -1.99 0.8 -2.76L0.78 -2.81L-0.67 -2.81C-0.67 -2.33 -0.87 -1.92 -1.28 -1.59C-1.69 -1.26 -2.16 -1.09 -2.7 -1.09Z M2.38 -1.04L2.38 0L6.68 0L6.68 -1.04L5.34 -1.27L5.34 -8.89L2.38 -8.89L2.38 -7.85L3.72 -7.62L3.72 -1.27ZM5.34 -11.17L5.34 -12.82L3.72 -12.82L3.72 -11.17Z M11.81 -1.04L11.81 0L15.24 0L15.24 -1.04L14.33 -1.19L15.15 -3.39L19.94 -3.39L20.73 -1.19L19.82 -1.04L19.82 0L23.26 0L23.26 -1.04L22.38 -1.16L18.27 -11.96L16.88 -11.96L12.7 -1.16ZM15.65 -4.75L17.54 -9.88L17.59 -9.88L19.44 -4.75Z M24.19 -11.77L25.53 -11.54L25.53 -1.27L24.19 -1.04L24.19 0L28.49 0L28.49 -1.04L27.15 -1.27L27.15 -12.82L24.19 -12.82Z M33.77 0.17C34.51 0.17 35.14 0.07 35.66 -0.14C36.18 -0.35 36.6 -0.61 36.92 -0.92L36.29 -1.97C35.99 -1.7 35.63 -1.48 35.22 -1.33C34.8 -1.17 34.32 -1.09 33.77 -1.09C33.02 -1.09 32.44 -1.37 32.02 -1.92C31.61 -2.47 31.39 -3.17 31.37 -4.03L31.4 -4.07L37.17 -4.07L37.17 -5.08C37.17 -6.28 36.86 -7.25 36.24 -7.97C35.63 -8.69 34.72 -9.05 33.53 -9.05C32.5 -9.05 31.61 -8.63 30.85 -7.79C30.1 -6.95 29.72 -5.9 29.72 -4.63L29.72 -4.27C29.72 -2.96 30.09 -1.89 30.82 -1.06C31.55 -0.24 32.54 0.17 33.77 0.17ZM33.53 -7.78C34.2 -7.78 34.7 -7.57 35.04 -7.14C35.38 -6.71 35.55 -6.18 35.55 -5.55L35.55 -5.33L31.45 -5.33L31.43 -5.37C31.52 -6.06 31.76 -6.64 32.14 -7.09C32.52 -7.55 32.98 -7.78 33.53 -7.78Z M38.54 -11.77L39.88 -11.54L39.88 -1.27L38.54 -1.04L38.54 0L42.84 0L42.84 -1.04L41.5 -1.27L41.5 -4.1L42.56 -4.1L44.92 -1.14L44.09 -1.04L44.09 0L47.77 0L47.77 -1.04L46.76 -1.23L43.91 -4.84L46.25 -7.63L47.34 -7.85L47.34 -8.89L43.62 -8.89L43.62 -7.85L44.43 -7.74L42.53 -5.39L41.5 -5.39L41.5 -12.82L38.54 -12.82Z M55.79 -6.1L55.71 -8.06C55.36 -8.37 54.91 -8.62 54.37 -8.79C53.84 -8.97 53.23 -9.05 52.56 -9.05C51.57 -9.05 50.77 -8.8 50.15 -8.29C49.54 -7.78 49.23 -7.16 49.23 -6.44C49.23 -5.75 49.5 -5.2 50.05 -4.8C50.6 -4.39 51.41 -4.07 52.49 -3.84C53.25 -3.67 53.76 -3.47 54.03 -3.24C54.3 -3.01 54.44 -2.71 54.44 -2.36C54.44 -1.98 54.28 -1.67 53.95 -1.44C53.62 -1.21 53.17 -1.09 52.6 -1.09C52.26 -1.09 51.94 -1.13 51.62 -1.21C51.3 -1.28 51.04 -1.41 50.86 -1.58L50.55 -2.77L49.34 -2.77L49.34 -0.74C49.77 -0.44 50.24 -0.22 50.78 -0.06C51.32 0.09 51.92 0.17 52.6 0.17C53.63 0.17 54.46 -0.07 55.1 -0.56C55.74 -1.05 56.06 -1.68 56.06 -2.47C56.06 -3.17 55.78 -3.72 55.24 -4.14C54.69 -4.55 53.85 -4.88 52.73 -5.12C51.97 -5.28 51.47 -5.46 51.23 -5.66C50.98 -5.86 50.86 -6.14 50.86 -6.49C50.86 -6.85 51 -7.15 51.27 -7.4C51.55 -7.65 51.98 -7.78 52.56 -7.78C52.93 -7.78 53.27 -7.72 53.57 -7.61C53.87 -7.5 54.12 -7.35 54.31 -7.16L54.58 -6.1Z M63.37 0L65.49 0L65.49 -1.04L64.83 -1.13C64.82 -1.24 64.81 -1.34 64.81 -1.45C64.81 -1.56 64.81 -1.68 64.81 -1.79L64.81 -6.07C64.81 -7.03 64.49 -7.77 63.87 -8.28C63.25 -8.8 62.43 -9.05 61.42 -9.05C60.75 -9.05 60.12 -8.96 59.55 -8.76C58.97 -8.57 58.48 -8.31 58.08 -7.99L58.08 -6.26L59.33 -6.26L59.5 -7.2C59.69 -7.38 59.94 -7.52 60.25 -7.62C60.56 -7.73 60.92 -7.78 61.32 -7.78C61.91 -7.78 62.37 -7.63 62.7 -7.32C63.02 -7.02 63.19 -6.61 63.19 -6.09L63.19 -5.05L61.52 -5.05C60.33 -5.05 59.4 -4.82 58.71 -4.37C58.03 -3.91 57.69 -3.26 57.69 -2.42C57.69 -1.59 57.93 -0.96 58.41 -0.51C58.9 -0.05 59.6 0.17 60.53 0.17C61.06 0.17 61.56 0.04 62.03 -0.23C62.49 -0.49 62.88 -0.82 63.2 -1.22C63.21 -1.03 63.23 -0.84 63.25 -0.65C63.28 -0.46 63.32 -0.24 63.37 0ZM60.76 -1.18C60.28 -1.18 59.91 -1.29 59.67 -1.49C59.43 -1.7 59.31 -1.99 59.31 -2.38C59.31 -2.82 59.5 -3.19 59.89 -3.5C60.28 -3.81 60.8 -3.96 61.46 -3.96L63.19 -3.96L63.19 -2.5C63 -2.14 62.68 -1.83 62.24 -1.57C61.79 -1.31 61.3 -1.18 60.76 -1.18Z M66.6 -1.04L66.6 0L70.9 0L70.9 -1.04L69.56 -1.27L69.56 -6.48C69.77 -6.87 70.06 -7.18 70.41 -7.4C70.77 -7.63 71.19 -7.74 71.65 -7.74C72.29 -7.74 72.76 -7.58 73.07 -7.25C73.38 -6.92 73.53 -6.36 73.53 -5.58L73.53 -1.27L72.19 -1.04L72.19 0L76.49 0L76.49 -1.04L75.15 -1.27L75.15 -5.61C75.15 -6.78 74.89 -7.65 74.36 -8.21C73.84 -8.77 73.09 -9.05 72.14 -9.05C71.57 -9.05 71.06 -8.92 70.61 -8.66C70.17 -8.4 69.79 -8.04 69.5 -7.57L69.38 -8.89L66.6 -8.89L66.6 -7.85L67.94 -7.62L67.94 -1.27Z M83.57 -1.06L83.7 0L86.45 0L86.45 -1.04L85.11 -1.27L85.11 -12.82L83.49 -12.82L82.15 -12.82L82.15 -11.77L83.49 -11.54L83.49 -7.92C83.21 -8.29 82.86 -8.57 82.46 -8.76C82.06 -8.96 81.59 -9.05 81.07 -9.05C79.97 -9.05 79.12 -8.62 78.51 -7.74C77.9 -6.86 77.59 -5.71 77.59 -4.28L77.59 -4.11C77.59 -2.83 77.9 -1.79 78.51 -1.01C79.12 -0.22 79.97 0.17 81.05 0.17C81.6 0.17 82.09 0.07 82.51 -0.14C82.93 -0.35 83.28 -0.65 83.57 -1.06ZM79.21 -4.11L79.21 -4.28C79.21 -5.31 79.4 -6.14 79.77 -6.78C80.13 -7.42 80.71 -7.74 81.48 -7.74C81.94 -7.74 82.34 -7.63 82.68 -7.41C83.01 -7.19 83.28 -6.9 83.49 -6.52L83.49 -2.4C83.28 -2 83.01 -1.69 82.68 -1.47C82.35 -1.25 81.94 -1.14 81.46 -1.14C80.7 -1.14 80.13 -1.41 79.76 -1.96C79.39 -2.5 79.21 -3.22 79.21 -4.11Z M87.68 -7.85L89.02 -7.62L89.02 -1.27L87.68 -1.04L87.68 0L91.98 0L91.98 -1.04L90.64 -1.27L90.64 -6.37C90.8 -6.73 91.02 -7.01 91.31 -7.21C91.6 -7.41 91.96 -7.51 92.39 -7.51L93.31 -7.46L93.52 -8.96C93.45 -8.99 93.35 -9.01 93.22 -9.03C93.08 -9.04 92.95 -9.05 92.83 -9.05C92.35 -9.05 91.93 -8.93 91.56 -8.67C91.19 -8.41 90.88 -8.05 90.62 -7.6L90.47 -8.89L87.68 -8.89Z M100.44 0L102.56 0L102.56 -1.04L101.9 -1.13C101.89 -1.24 101.89 -1.34 101.88 -1.45C101.88 -1.56 101.88 -1.68 101.88 -1.79L101.88 -6.07C101.88 -7.03 101.57 -7.77 100.94 -8.28C100.32 -8.8 99.5 -9.05 98.49 -9.05C97.82 -9.05 97.2 -8.96 96.62 -8.76C96.05 -8.57 95.56 -8.31 95.15 -7.99L95.15 -6.26L96.4 -6.26L96.57 -7.2C96.76 -7.38 97.01 -7.52 97.32 -7.62C97.63 -7.73 97.99 -7.78 98.4 -7.78C98.98 -7.78 99.44 -7.63 99.77 -7.32C100.1 -7.02 100.26 -6.61 100.26 -6.09L100.26 -5.05L98.59 -5.05C97.4 -5.05 96.47 -4.82 95.79 -4.37C95.11 -3.91 94.76 -3.26 94.76 -2.42C94.76 -1.59 95.01 -0.96 95.49 -0.51C95.97 -0.05 96.67 0.17 97.6 0.17C98.13 0.17 98.63 0.04 99.1 -0.23C99.57 -0.49 99.96 -0.82 100.27 -1.22C100.28 -1.03 100.3 -0.84 100.33 -0.65C100.35 -0.46 100.39 -0.24 100.44 0ZM97.84 -1.18C97.35 -1.18 96.99 -1.29 96.74 -1.49C96.5 -1.7 96.38 -1.99 96.38 -2.38C96.38 -2.82 96.58 -3.19 96.96 -3.5C97.35 -3.81 97.87 -3.96 98.54 -3.96L100.26 -3.96L100.26 -2.5C100.07 -2.14 99.75 -1.83 99.31 -1.57C98.86 -1.31 98.37 -1.18 97.84 -1.18Z M116.6 -8.43L116.6 -10.66C116.19 -11.07 115.64 -11.42 114.95 -11.7C114.26 -11.99 113.5 -12.14 112.66 -12.14C111.39 -12.14 110.36 -11.82 109.56 -11.2C108.77 -10.58 108.37 -9.8 108.37 -8.87C108.37 -7.98 108.73 -7.24 109.44 -6.66C110.15 -6.07 111.14 -5.63 112.41 -5.32C113.45 -5.07 114.17 -4.76 114.58 -4.39C114.99 -4.02 115.2 -3.56 115.2 -3.02C115.2 -2.42 114.96 -1.96 114.49 -1.61C114.01 -1.27 113.37 -1.09 112.55 -1.09C111.95 -1.09 111.43 -1.17 111 -1.34C110.57 -1.5 110.19 -1.71 109.88 -1.97L109.57 -3.69L108.35 -3.69L108.35 -1.46C108.8 -0.98 109.39 -0.58 110.1 -0.28C110.82 0.02 111.63 0.17 112.55 0.17C113.82 0.17 114.85 -0.12 115.64 -0.71C116.42 -1.29 116.82 -2.07 116.82 -3.03C116.82 -3.93 116.49 -4.68 115.84 -5.29C115.18 -5.9 114.22 -6.36 112.96 -6.67C111.92 -6.93 111.16 -7.24 110.69 -7.59C110.22 -7.94 109.99 -8.37 109.99 -8.89C109.99 -9.48 110.22 -9.95 110.68 -10.32C111.14 -10.68 111.8 -10.86 112.66 -10.86C113.2 -10.86 113.68 -10.79 114.09 -10.66C114.5 -10.52 114.83 -10.35 115.08 -10.14L115.38 -8.43Z M126.78 -7.85L126.78 -8.89L123.2 -8.89L123.2 -7.85L124.21 -7.68L122.36 -2.16L122.31 -2.16L122.02 -3.29L120.48 -7.68L121.48 -7.85L121.48 -8.89L117.89 -8.89L117.89 -7.85L118.71 -7.72L121.64 -0.17L121.25 0.75C121.1 1.14 120.91 1.48 120.7 1.78C120.48 2.08 120.2 2.23 119.86 2.23C119.8 2.23 119.65 2.22 119.43 2.2C119.2 2.19 119.1 2.18 119.13 2.19L118.97 3.46C119.08 3.49 119.24 3.52 119.44 3.55C119.64 3.58 119.81 3.59 119.93 3.59C120.64 3.59 121.21 3.37 121.63 2.93C122.05 2.48 122.38 1.96 122.6 1.36L125.99 -7.72Z M127.66 -11.77L129 -11.54L129 -1.27L127.66 -1.04L127.66 0L131.96 0L131.96 -1.04L130.62 -1.27L130.62 -4.1L131.68 -4.1L134.04 -1.14L133.21 -1.04L133.21 0L136.9 0L136.9 -1.04L135.89 -1.23L133.04 -4.84L135.38 -7.63L136.46 -7.85L136.46 -8.89L132.74 -8.89L132.74 -7.85L133.55 -7.74L131.66 -5.39L130.62 -5.39L130.62 -12.82L127.66 -12.82Z M140.94 -11.03L139.32 -11.03L139.32 -8.89L137.92 -8.89L137.92 -7.69L139.32 -7.69L139.32 -2.29C139.32 -1.44 139.52 -0.82 139.91 -0.42C140.29 -0.03 140.82 0.17 141.47 0.17C141.77 0.17 142.07 0.14 142.36 0.08C142.66 0.02 142.88 -0.07 143.04 -0.16L142.81 -1.27C142.69 -1.25 142.54 -1.22 142.37 -1.2C142.19 -1.17 142.03 -1.16 141.89 -1.16C141.6 -1.16 141.37 -1.24 141.2 -1.41C141.03 -1.58 140.94 -1.88 140.94 -2.29L140.94 -7.69L142.63 -7.69L142.63 -8.89L140.94 -8.89Z M150.64 -1.31L150.74 0L153.22 0L153.22 -1.04L152.2 -1.27L152.2 -8.89L150.58 -8.89L149.39 -8.89L149.39 -7.85L150.58 -7.62L150.58 -2.48C150.39 -2.05 150.1 -1.72 149.73 -1.49C149.35 -1.26 148.88 -1.14 148.3 -1.14C147.71 -1.14 147.28 -1.32 147 -1.68C146.72 -2.03 146.58 -2.68 146.58 -3.63L146.58 -8.89L144.96 -8.89L143.94 -8.89L143.94 -7.85L144.96 -7.62L144.96 -3.65C144.96 -2.34 145.23 -1.37 145.77 -0.76C146.31 -0.14 147.07 0.17 148.03 0.17C148.61 0.17 149.11 0.04 149.56 -0.21C150 -0.47 150.36 -0.84 150.64 -1.31Z M161.3 -6.1L161.22 -8.06C160.86 -8.37 160.42 -8.62 159.88 -8.79C159.34 -8.97 158.74 -9.05 158.06 -9.05C157.08 -9.05 156.28 -8.8 155.66 -8.29C155.04 -7.78 154.74 -7.16 154.74 -6.44C154.74 -5.75 155.01 -5.2 155.56 -4.8C156.11 -4.39 156.92 -4.07 158 -3.84C158.75 -3.67 159.27 -3.47 159.54 -3.24C159.81 -3.01 159.95 -2.71 159.95 -2.36C159.95 -1.98 159.78 -1.67 159.46 -1.44C159.13 -1.21 158.68 -1.09 158.1 -1.09C157.77 -1.09 157.44 -1.13 157.12 -1.21C156.8 -1.28 156.55 -1.41 156.36 -1.58L156.06 -2.77L154.84 -2.77L154.85 -0.74C155.27 -0.44 155.75 -0.22 156.29 -0.06C156.83 0.09 157.43 0.17 158.1 0.17C159.13 0.17 159.97 -0.07 160.61 -0.56C161.24 -1.05 161.56 -1.68 161.56 -2.47C161.56 -3.17 161.29 -3.72 160.74 -4.14C160.19 -4.55 159.36 -4.88 158.24 -5.12C157.48 -5.28 156.98 -5.46 156.73 -5.66C156.49 -5.86 156.36 -6.14 156.36 -6.49C156.36 -6.85 156.5 -7.15 156.78 -7.4C157.06 -7.65 157.49 -7.78 158.06 -7.78C158.44 -7.78 158.78 -7.72 159.08 -7.61C159.38 -7.5 159.62 -7.35 159.82 -7.16L160.09 -6.1Z"></path></g><g id="SvgjsG2134" class="_ZSR0l63Ar" transform="translate(-8.725920113591718, -8.374054702659668) scale(0.8725920113591717)" light-content="false" non-strokable="false" fill="url(#SvgjsLinearGradientM9jlT5moT)"><path d="M30 10v33.333h26.667V70H90V10z"></path><path d="M10 50h40v40H10z"></path></g><rect id="SvgjsRect2135" width="372.5221783088235" height="5.944852941176471" fill="#04244c" transform="translate(4.340719286068989, 87.50755433630349) scale(1)" light-content="false"></rect></g></g></svg>